SplineFontDB: 3.0
FontName: apple2Medium
FullName: apple2 Medium
FamilyName: apple2
Weight: Medium
Copyright: Public domain font.  Share and enjoy.
Version: 001.000
ItalicAngle: 0
UnderlinePosition: -103
UnderlineWidth: 51
Ascent: 896
Descent: 128
sfntRevision: 0x00010000
LayerCount: 2
Layer: 0 1 "Back"  1
Layer: 1 1 "Fore"  0
XUID: [1021 63 1444778028 11663961]
FSType: 0
OS2Version: 4
OS2_WeightWidthSlopeOnly: 0
OS2_UseTypoMetrics: 1
CreationTime: 1409230212
ModificationTime: 1409257929
PfmFamily: 17
TTFWeight: 500
TTFWidth: 5
LineGap: 92
VLineGap: 0
Panose: 2 0 6 9 0 0 0 0 0 0
OS2TypoAscent: 896
OS2TypoAOffset: 0
OS2TypoDescent: -128
OS2TypoDOffset: 0
OS2TypoLinegap: 92
OS2WinAscent: 896
OS2WinAOffset: 0
OS2WinDescent: 0
OS2WinDOffset: 0
HheadAscent: 896
HheadAOffset: 0
HheadDescent: 0
HheadDOffset: 0
OS2SubXSize: 665
OS2SubYSize: 716
OS2SubXOff: 0
OS2SubYOff: 143
OS2SupXSize: 665
OS2SupYSize: 716
OS2SupXOff: 0
OS2SupYOff: 491
OS2StrikeYSize: 51
OS2StrikeYPos: 265
OS2Vendor: 'PfEd'
OS2CodePages: 00000001.00000000
OS2UnicodeRanges: 00000001.00000000.00000000.00000000
MarkAttachClasses: 1
DEI: 91125
ShortTable: cvt  2
  34
  648
EndShort
ShortTable: maxp 16
  1
  0
  42
  76
  9
  0
  0
  2
  0
  1
  1
  0
  64
  46
  0
  0
EndShort
LangName: 1033 "" "" "" "FontForge 2.0 : apple2 Medium : 28-8-2014" 
GaspTable: 1 65535 2 0
Encoding: UnicodeBmp
UnicodeInterp: none
NameList: Adobe Glyph List
DisplaySize: -36
AntiAlias: 1
FitToEm: 1
WinInfo: 16 16 8
BeginChars: 65539 44

StartChar: .notdef
Encoding: 65536 -1 0
Width: 448
Flags: W
LayerCount: 2
Fore
SplineSet
34 0 m 1,0,-1
 34 682 l 1,1,-1
 306 682 l 1,2,-1
 306 0 l 1,3,-1
 34 0 l 1,0,-1
68 34 m 1,4,-1
 272 34 l 1,5,-1
 272 648 l 1,6,-1
 68 648 l 1,7,-1
 68 34 l 1,4,-1
EndSplineSet
EndChar

StartChar: hyphen
Encoding: 45 45 3
Width: 448
Flags: W
LayerCount: 2
Back
Fore
SplineSet
64 384 m 1,0,-1
 64 448 l 1,1,-1
 64 512 l 1,2,-1
 128 512 l 1,3,-1
 192 512 l 1,4,-1
 256 512 l 1,5,-1
 320 512 l 1,6,-1
 384 512 l 1,7,-1
 384 448 l 1,8,-1
 384 384 l 1,9,-1
 320 384 l 1,10,-1
 256 384 l 1,11,-1
 192 384 l 1,12,-1
 128 384 l 1,13,-1
 64 384 l 1,0,-1
EndSplineSet
EndChar

StartChar: period
Encoding: 46 46 4
Width: 448
Flags: W
LayerCount: 2
Back
Fore
SplineSet
192 0 m 1,0,-1
 192 64 l 1,1,-1
 192 128 l 1,2,-1
 256 128 l 1,3,-1
 256 64 l 1,4,-1
 256 0 l 1,5,-1
 192 0 l 1,0,-1
EndSplineSet
EndChar

StartChar: slash
Encoding: 47 47 5
Width: 448
Flags: W
LayerCount: 2
Back
Fore
SplineSet
64 128 m 1,0,-1
 64 192 l 1,1,-1
 64 256 l 1,2,-1
 128 256 l 1,3,-1
 128 192 l 1,4,-1
 128 128 l 1,5,-1
 64 128 l 1,0,-1
128 256 m 1,6,-1
 128 320 l 1,7,-1
 128 384 l 1,8,-1
 192 384 l 1,9,-1
 192 320 l 1,10,-1
 192 256 l 1,11,-1
 128 256 l 1,6,-1
192 384 m 1,12,-1
 192 448 l 1,13,-1
 192 512 l 1,14,-1
 256 512 l 1,15,-1
 256 448 l 1,16,-1
 256 384 l 1,17,-1
 192 384 l 1,12,-1
256 512 m 1,18,-1
 256 576 l 1,19,-1
 256 640 l 1,20,-1
 320 640 l 1,21,-1
 320 576 l 1,22,-1
 320 512 l 1,23,-1
 256 512 l 1,18,-1
320 640 m 1,24,-1
 320 704 l 1,25,-1
 320 768 l 1,26,-1
 384 768 l 1,27,-1
 384 704 l 1,28,-1
 384 640 l 1,29,-1
 320 640 l 1,24,-1
EndSplineSet
EndChar

StartChar: zero
Encoding: 48 48 6
Width: 448
Flags: W
LayerCount: 2
Back
Fore
SplineSet
128 0 m 1,0,-1
 128 64 l 1,1,-1
 128 128 l 1,2,-1
 192 128 l 1,3,-1
 256 128 l 1,4,-1
 320 128 l 1,5,-1
 320 64 l 1,6,-1
 320 0 l 1,7,-1
 256 0 l 1,8,-1
 192 0 l 1,9,-1
 128 0 l 1,0,-1
64 128 m 1,10,-1
 64 192 l 1,11,-1
 64 256 l 1,12,-1
 64 320 l 1,13,-1
 64 384 l 1,14,-1
 64 448 l 1,15,-1
 64 512 l 1,16,-1
 64 576 l 1,17,-1
 64 640 l 1,18,-1
 64 704 l 1,19,-1
 64 768 l 1,20,-1
 128 768 l 1,21,-1
 128 704 l 1,22,-1
 128 640 l 1,23,-1
 128 576 l 1,24,-1
 128 512 l 1,25,-1
 128 448 l 1,26,-1
 128 384 l 1,27,-1
 192 384 l 1,28,-1
 192 320 l 1,29,-1
 192 256 l 1,30,-1
 128 256 l 1,31,-1
 128 192 l 1,32,-1
 128 128 l 1,33,-1
 64 128 l 1,10,-1
320 128 m 1,34,-1
 320 192 l 1,35,-1
 320 256 l 1,36,-1
 320 320 l 1,37,-1
 320 384 l 1,38,-1
 320 448 l 1,39,-1
 320 512 l 1,40,-1
 256 512 l 1,41,-1
 256 576 l 1,42,-1
 256 640 l 1,43,-1
 320 640 l 1,44,-1
 320 704 l 1,45,-1
 320 768 l 1,46,-1
 384 768 l 1,47,-1
 384 704 l 1,48,-1
 384 640 l 1,49,-1
 384 576 l 1,50,-1
 384 512 l 1,51,-1
 384 448 l 1,52,-1
 384 384 l 1,53,-1
 384 320 l 1,54,-1
 384 256 l 1,55,-1
 384 192 l 1,56,-1
 384 128 l 1,57,-1
 320 128 l 1,34,-1
192 384 m 1,58,-1
 192 448 l 1,59,-1
 192 512 l 1,60,-1
 256 512 l 1,61,-1
 256 448 l 1,62,-1
 256 384 l 1,63,-1
 192 384 l 1,58,-1
128 768 m 1,64,-1
 128 832 l 1,65,-1
 128 896 l 1,66,-1
 192 896 l 1,67,-1
 256 896 l 1,68,-1
 320 896 l 1,69,-1
 320 832 l 1,70,-1
 320 768 l 1,71,-1
 256 768 l 1,72,-1
 192 768 l 1,73,-1
 128 768 l 1,64,-1
EndSplineSet
EndChar

StartChar: one
Encoding: 49 49 7
Width: 448
Flags: W
LayerCount: 2
Back
Fore
SplineSet
128 0 m 1,0,-1
 128 64 l 1,1,-1
 128 128 l 1,2,-1
 192 128 l 1,3,-1
 192 192 l 1,4,-1
 192 256 l 1,5,-1
 192 320 l 1,6,-1
 192 384 l 1,7,-1
 192 448 l 1,8,-1
 192 512 l 1,9,-1
 192 576 l 1,10,-1
 192 640 l 1,11,-1
 128 640 l 1,12,-1
 128 704 l 1,13,-1
 128 768 l 1,14,-1
 192 768 l 1,15,-1
 192 832 l 1,16,-1
 192 896 l 1,17,-1
 256 896 l 1,18,-1
 256 832 l 1,19,-1
 256 768 l 1,20,-1
 256 704 l 1,21,-1
 256 640 l 1,22,-1
 256 576 l 1,23,-1
 256 512 l 1,24,-1
 256 448 l 1,25,-1
 256 384 l 1,26,-1
 256 320 l 1,27,-1
 256 256 l 1,28,-1
 256 192 l 1,29,-1
 256 128 l 1,30,-1
 320 128 l 1,31,-1
 320 64 l 1,32,-1
 320 0 l 1,33,-1
 256 0 l 1,34,-1
 192 0 l 1,35,-1
 128 0 l 1,0,-1
EndSplineSet
EndChar

StartChar: two
Encoding: 50 50 8
Width: 448
Flags: W
LayerCount: 2
Back
Fore
SplineSet
64 0 m 1,0,-1
 64 64 l 1,1,-1
 64 128 l 1,2,-1
 64 192 l 1,3,-1
 64 256 l 1,4,-1
 128 256 l 1,5,-1
 128 192 l 1,6,-1
 128 128 l 1,7,-1
 192 128 l 1,8,-1
 256 128 l 1,9,-1
 320 128 l 1,10,-1
 384 128 l 1,11,-1
 384 64 l 1,12,-1
 384 0 l 1,13,-1
 320 0 l 1,14,-1
 256 0 l 1,15,-1
 192 0 l 1,16,-1
 128 0 l 1,17,-1
 64 0 l 1,0,-1
128 256 m 1,18,-1
 128 320 l 1,19,-1
 128 384 l 1,20,-1
 192 384 l 1,21,-1
 192 320 l 1,22,-1
 192 256 l 1,23,-1
 128 256 l 1,18,-1
192 384 m 1,24,-1
 192 448 l 1,25,-1
 192 512 l 1,26,-1
 256 512 l 1,27,-1
 320 512 l 1,28,-1
 320 448 l 1,29,-1
 320 384 l 1,30,-1
 256 384 l 1,31,-1
 192 384 l 1,24,-1
320 512 m 1,32,-1
 320 576 l 1,33,-1
 320 640 l 1,34,-1
 320 704 l 1,35,-1
 320 768 l 1,36,-1
 384 768 l 1,37,-1
 384 704 l 1,38,-1
 384 640 l 1,39,-1
 384 576 l 1,40,-1
 384 512 l 1,41,-1
 320 512 l 1,32,-1
64 640 m 1,42,-1
 64 704 l 1,43,-1
 64 768 l 1,44,-1
 128 768 l 1,45,-1
 128 704 l 1,46,-1
 128 640 l 1,47,-1
 64 640 l 1,42,-1
128 768 m 1,48,-1
 128 832 l 1,49,-1
 128 896 l 1,50,-1
 192 896 l 1,51,-1
 256 896 l 1,52,-1
 320 896 l 1,53,-1
 320 832 l 1,54,-1
 320 768 l 1,55,-1
 256 768 l 1,56,-1
 192 768 l 1,57,-1
 128 768 l 1,48,-1
EndSplineSet
EndChar

StartChar: three
Encoding: 51 51 9
Width: 448
Flags: W
LayerCount: 2
Back
Fore
SplineSet
128 0 m 1,0,-1
 128 64 l 1,1,-1
 128 128 l 1,2,-1
 192 128 l 1,3,-1
 256 128 l 1,4,-1
 320 128 l 1,5,-1
 320 64 l 1,6,-1
 320 0 l 1,7,-1
 256 0 l 1,8,-1
 192 0 l 1,9,-1
 128 0 l 1,0,-1
64 128 m 1,10,-1
 64 192 l 1,11,-1
 64 256 l 1,12,-1
 128 256 l 1,13,-1
 128 192 l 1,14,-1
 128 128 l 1,15,-1
 64 128 l 1,10,-1
320 128 m 1,16,-1
 320 192 l 1,17,-1
 320 256 l 1,18,-1
 320 320 l 1,19,-1
 320 384 l 1,20,-1
 384 384 l 1,21,-1
 384 320 l 1,22,-1
 384 256 l 1,23,-1
 384 192 l 1,24,-1
 384 128 l 1,25,-1
 320 128 l 1,16,-1
192 384 m 1,26,-1
 192 448 l 1,27,-1
 192 512 l 1,28,-1
 256 512 l 1,29,-1
 256 576 l 1,30,-1
 256 640 l 1,31,-1
 320 640 l 1,32,-1
 320 576 l 1,33,-1
 320 512 l 1,34,-1
 320 448 l 1,35,-1
 320 384 l 1,36,-1
 256 384 l 1,37,-1
 192 384 l 1,26,-1
320 640 m 1,38,-1
 320 704 l 1,39,-1
 320 768 l 1,40,-1
 256 768 l 1,41,-1
 192 768 l 1,42,-1
 128 768 l 1,43,-1
 64 768 l 1,44,-1
 64 832 l 1,45,-1
 64 896 l 1,46,-1
 128 896 l 1,47,-1
 192 896 l 1,48,-1
 256 896 l 1,49,-1
 320 896 l 1,50,-1
 384 896 l 1,51,-1
 384 832 l 1,52,-1
 384 768 l 1,53,-1
 384 704 l 1,54,-1
 384 640 l 1,55,-1
 320 640 l 1,38,-1
EndSplineSet
EndChar

StartChar: four
Encoding: 52 52 10
Width: 448
Flags: W
LayerCount: 2
Back
Fore
SplineSet
256 0 m 1,0,-1
 256 64 l 1,1,-1
 256 128 l 1,2,-1
 256 192 l 1,3,-1
 256 256 l 1,4,-1
 192 256 l 1,5,-1
 128 256 l 1,6,-1
 64 256 l 1,7,-1
 64 320 l 1,8,-1
 64 384 l 1,9,-1
 64 448 l 1,10,-1
 64 512 l 1,11,-1
 128 512 l 1,12,-1
 128 448 l 1,13,-1
 128 384 l 1,14,-1
 192 384 l 1,15,-1
 256 384 l 1,16,-1
 256 448 l 1,17,-1
 256 512 l 1,18,-1
 256 576 l 1,19,-1
 256 640 l 1,20,-1
 192 640 l 1,21,-1
 192 704 l 1,22,-1
 192 768 l 1,23,-1
 256 768 l 1,24,-1
 256 832 l 1,25,-1
 256 896 l 1,26,-1
 320 896 l 1,27,-1
 320 832 l 1,28,-1
 320 768 l 1,29,-1
 320 704 l 1,30,-1
 320 640 l 1,31,-1
 320 576 l 1,32,-1
 320 512 l 1,33,-1
 320 448 l 1,34,-1
 320 384 l 1,35,-1
 384 384 l 1,36,-1
 384 320 l 1,37,-1
 384 256 l 1,38,-1
 320 256 l 1,39,-1
 320 192 l 1,40,-1
 320 128 l 1,41,-1
 320 64 l 1,42,-1
 320 0 l 1,43,-1
 256 0 l 1,0,-1
128 512 m 1,44,-1
 128 576 l 1,45,-1
 128 640 l 1,46,-1
 192 640 l 1,47,-1
 192 576 l 1,48,-1
 192 512 l 1,49,-1
 128 512 l 1,44,-1
EndSplineSet
EndChar

StartChar: five
Encoding: 53 53 11
Width: 448
Flags: W
LayerCount: 2
Back
Fore
SplineSet
128 0 m 1,0,-1
 128 64 l 1,1,-1
 128 128 l 1,2,-1
 192 128 l 1,3,-1
 256 128 l 1,4,-1
 320 128 l 1,5,-1
 320 64 l 1,6,-1
 320 0 l 1,7,-1
 256 0 l 1,8,-1
 192 0 l 1,9,-1
 128 0 l 1,0,-1
64 128 m 1,10,-1
 64 192 l 1,11,-1
 64 256 l 1,12,-1
 128 256 l 1,13,-1
 128 192 l 1,14,-1
 128 128 l 1,15,-1
 64 128 l 1,10,-1
320 128 m 1,16,-1
 320 192 l 1,17,-1
 320 256 l 1,18,-1
 320 320 l 1,19,-1
 320 384 l 1,20,-1
 320 448 l 1,21,-1
 320 512 l 1,22,-1
 384 512 l 1,23,-1
 384 448 l 1,24,-1
 384 384 l 1,25,-1
 384 320 l 1,26,-1
 384 256 l 1,27,-1
 384 192 l 1,28,-1
 384 128 l 1,29,-1
 320 128 l 1,16,-1
64 512 m 1,30,-1
 64 576 l 1,31,-1
 64 640 l 1,32,-1
 64 704 l 1,33,-1
 64 768 l 1,34,-1
 64 832 l 1,35,-1
 64 896 l 1,36,-1
 128 896 l 1,37,-1
 192 896 l 1,38,-1
 256 896 l 1,39,-1
 320 896 l 1,40,-1
 384 896 l 1,41,-1
 384 832 l 1,42,-1
 384 768 l 1,43,-1
 320 768 l 1,44,-1
 256 768 l 1,45,-1
 192 768 l 1,46,-1
 128 768 l 1,47,-1
 128 704 l 1,48,-1
 128 640 l 1,49,-1
 192 640 l 1,50,-1
 256 640 l 1,51,-1
 320 640 l 1,52,-1
 320 576 l 1,53,-1
 320 512 l 1,54,-1
 256 512 l 1,55,-1
 192 512 l 1,56,-1
 128 512 l 1,57,-1
 64 512 l 1,30,-1
EndSplineSet
EndChar

StartChar: six
Encoding: 54 54 12
Width: 448
Flags: W
LayerCount: 2
Back
Fore
SplineSet
128 0 m 1,0,-1
 128 64 l 1,1,-1
 128 128 l 1,2,-1
 192 128 l 1,3,-1
 256 128 l 1,4,-1
 320 128 l 1,5,-1
 320 64 l 1,6,-1
 320 0 l 1,7,-1
 256 0 l 1,8,-1
 192 0 l 1,9,-1
 128 0 l 1,0,-1
64 128 m 1,10,-1
 64 192 l 1,11,-1
 64 256 l 1,12,-1
 64 320 l 1,13,-1
 64 384 l 1,14,-1
 64 448 l 1,15,-1
 64 512 l 1,16,-1
 64 576 l 1,17,-1
 64 640 l 1,18,-1
 128 640 l 1,19,-1
 128 576 l 1,20,-1
 128 512 l 1,21,-1
 192 512 l 1,22,-1
 256 512 l 1,23,-1
 320 512 l 1,24,-1
 320 448 l 1,25,-1
 320 384 l 1,26,-1
 256 384 l 1,27,-1
 192 384 l 1,28,-1
 128 384 l 1,29,-1
 128 320 l 1,30,-1
 128 256 l 1,31,-1
 128 192 l 1,32,-1
 128 128 l 1,33,-1
 64 128 l 1,10,-1
320 128 m 1,34,-1
 320 192 l 1,35,-1
 320 256 l 1,36,-1
 320 320 l 1,37,-1
 320 384 l 1,38,-1
 384 384 l 1,39,-1
 384 320 l 1,40,-1
 384 256 l 1,41,-1
 384 192 l 1,42,-1
 384 128 l 1,43,-1
 320 128 l 1,34,-1
128 640 m 1,44,-1
 128 704 l 1,45,-1
 128 768 l 1,46,-1
 192 768 l 1,47,-1
 192 704 l 1,48,-1
 192 640 l 1,49,-1
 128 640 l 1,44,-1
192 768 m 1,50,-1
 192 832 l 1,51,-1
 192 896 l 1,52,-1
 256 896 l 1,53,-1
 320 896 l 1,54,-1
 384 896 l 1,55,-1
 384 832 l 1,56,-1
 384 768 l 1,57,-1
 320 768 l 1,58,-1
 256 768 l 1,59,-1
 192 768 l 1,50,-1
EndSplineSet
EndChar

StartChar: seven
Encoding: 55 55 13
Width: 448
Flags: W
LayerCount: 2
Back
Fore
SplineSet
128 0 m 1,0,-1
 128 64 l 1,1,-1
 128 128 l 1,2,-1
 128 192 l 1,3,-1
 128 256 l 1,4,-1
 128 320 l 1,5,-1
 128 384 l 1,6,-1
 192 384 l 1,7,-1
 192 320 l 1,8,-1
 192 256 l 1,9,-1
 192 192 l 1,10,-1
 192 128 l 1,11,-1
 192 64 l 1,12,-1
 192 0 l 1,13,-1
 128 0 l 1,0,-1
192 384 m 1,14,-1
 192 448 l 1,15,-1
 192 512 l 1,16,-1
 256 512 l 1,17,-1
 256 448 l 1,18,-1
 256 384 l 1,19,-1
 192 384 l 1,14,-1
256 512 m 1,20,-1
 256 576 l 1,21,-1
 256 640 l 1,22,-1
 320 640 l 1,23,-1
 320 576 l 1,24,-1
 320 512 l 1,25,-1
 256 512 l 1,20,-1
320 640 m 1,26,-1
 320 704 l 1,27,-1
 320 768 l 1,28,-1
 256 768 l 1,29,-1
 192 768 l 1,30,-1
 128 768 l 1,31,-1
 64 768 l 1,32,-1
 64 832 l 1,33,-1
 64 896 l 1,34,-1
 128 896 l 1,35,-1
 192 896 l 1,36,-1
 256 896 l 1,37,-1
 320 896 l 1,38,-1
 384 896 l 1,39,-1
 384 832 l 1,40,-1
 384 768 l 1,41,-1
 384 704 l 1,42,-1
 384 640 l 1,43,-1
 320 640 l 1,26,-1
EndSplineSet
EndChar

StartChar: eight
Encoding: 56 56 14
Width: 448
Flags: W
LayerCount: 2
Back
Fore
SplineSet
128 0 m 1,0,-1
 128 64 l 1,1,-1
 128 128 l 1,2,-1
 192 128 l 1,3,-1
 256 128 l 1,4,-1
 320 128 l 1,5,-1
 320 64 l 1,6,-1
 320 0 l 1,7,-1
 256 0 l 1,8,-1
 192 0 l 1,9,-1
 128 0 l 1,0,-1
64 128 m 1,10,-1
 64 192 l 1,11,-1
 64 256 l 1,12,-1
 64 320 l 1,13,-1
 64 384 l 1,14,-1
 128 384 l 1,15,-1
 128 320 l 1,16,-1
 128 256 l 1,17,-1
 128 192 l 1,18,-1
 128 128 l 1,19,-1
 64 128 l 1,10,-1
320 128 m 1,20,-1
 320 192 l 1,21,-1
 320 256 l 1,22,-1
 320 320 l 1,23,-1
 320 384 l 1,24,-1
 384 384 l 1,25,-1
 384 320 l 1,26,-1
 384 256 l 1,27,-1
 384 192 l 1,28,-1
 384 128 l 1,29,-1
 320 128 l 1,20,-1
128 384 m 1,30,-1
 128 448 l 1,31,-1
 128 512 l 1,32,-1
 192 512 l 1,33,-1
 256 512 l 1,34,-1
 320 512 l 1,35,-1
 320 448 l 1,36,-1
 320 384 l 1,37,-1
 256 384 l 1,38,-1
 192 384 l 1,39,-1
 128 384 l 1,30,-1
64 512 m 1,40,-1
 64 576 l 1,41,-1
 64 640 l 1,42,-1
 64 704 l 1,43,-1
 64 768 l 1,44,-1
 128 768 l 1,45,-1
 128 704 l 1,46,-1
 128 640 l 1,47,-1
 128 576 l 1,48,-1
 128 512 l 1,49,-1
 64 512 l 1,40,-1
320 512 m 1,50,-1
 320 576 l 1,51,-1
 320 640 l 1,52,-1
 320 704 l 1,53,-1
 320 768 l 1,54,-1
 384 768 l 1,55,-1
 384 704 l 1,56,-1
 384 640 l 1,57,-1
 384 576 l 1,58,-1
 384 512 l 1,59,-1
 320 512 l 1,50,-1
128 768 m 1,60,-1
 128 832 l 1,61,-1
 128 896 l 1,62,-1
 192 896 l 1,63,-1
 256 896 l 1,64,-1
 320 896 l 1,65,-1
 320 832 l 1,66,-1
 320 768 l 1,67,-1
 256 768 l 1,68,-1
 192 768 l 1,69,-1
 128 768 l 1,60,-1
EndSplineSet
EndChar

StartChar: nine
Encoding: 57 57 15
Width: 448
Flags: W
LayerCount: 2
Back
Fore
SplineSet
64 0 m 1,0,-1
 64 64 l 1,1,-1
 64 128 l 1,2,-1
 128 128 l 1,3,-1
 192 128 l 1,4,-1
 256 128 l 1,5,-1
 256 64 l 1,6,-1
 256 0 l 1,7,-1
 192 0 l 1,8,-1
 128 0 l 1,9,-1
 64 0 l 1,0,-1
256 128 m 1,10,-1
 256 192 l 1,11,-1
 256 256 l 1,12,-1
 320 256 l 1,13,-1
 320 192 l 1,14,-1
 320 128 l 1,15,-1
 256 128 l 1,10,-1
320 256 m 1,16,-1
 320 320 l 1,17,-1
 320 384 l 1,18,-1
 256 384 l 1,19,-1
 192 384 l 1,20,-1
 128 384 l 1,21,-1
 128 448 l 1,22,-1
 128 512 l 1,23,-1
 192 512 l 1,24,-1
 256 512 l 1,25,-1
 320 512 l 1,26,-1
 320 576 l 1,27,-1
 320 640 l 1,28,-1
 320 704 l 1,29,-1
 320 768 l 1,30,-1
 384 768 l 1,31,-1
 384 704 l 1,32,-1
 384 640 l 1,33,-1
 384 576 l 1,34,-1
 384 512 l 1,35,-1
 384 448 l 1,36,-1
 384 384 l 1,37,-1
 384 320 l 1,38,-1
 384 256 l 1,39,-1
 320 256 l 1,16,-1
64 512 m 1,40,-1
 64 576 l 1,41,-1
 64 640 l 1,42,-1
 64 704 l 1,43,-1
 64 768 l 1,44,-1
 128 768 l 1,45,-1
 128 704 l 1,46,-1
 128 640 l 1,47,-1
 128 576 l 1,48,-1
 128 512 l 1,49,-1
 64 512 l 1,40,-1
128 768 m 1,50,-1
 128 832 l 1,51,-1
 128 896 l 1,52,-1
 192 896 l 1,53,-1
 256 896 l 1,54,-1
 320 896 l 1,55,-1
 320 832 l 1,56,-1
 320 768 l 1,57,-1
 256 768 l 1,58,-1
 192 768 l 1,59,-1
 128 768 l 1,50,-1
EndSplineSet
EndChar

StartChar: A
Encoding: 65 65 16
Width: 448
Flags: W
LayerCount: 2
Back
Fore
SplineSet
64 0 m 1,0,-1
 64 64 l 1,1,-1
 64 128 l 1,2,-1
 64 192 l 1,3,-1
 64 256 l 1,4,-1
 64 320 l 1,5,-1
 64 384 l 1,6,-1
 64 448 l 1,7,-1
 64 512 l 1,8,-1
 64 576 l 1,9,-1
 64 640 l 1,10,-1
 128 640 l 1,11,-1
 128 576 l 1,12,-1
 128 512 l 1,13,-1
 128 448 l 1,14,-1
 128 384 l 1,15,-1
 192 384 l 1,16,-1
 256 384 l 1,17,-1
 320 384 l 1,18,-1
 320 448 l 1,19,-1
 320 512 l 1,20,-1
 320 576 l 1,21,-1
 320 640 l 1,22,-1
 384 640 l 1,23,-1
 384 576 l 1,24,-1
 384 512 l 1,25,-1
 384 448 l 1,26,-1
 384 384 l 1,27,-1
 384 320 l 1,28,-1
 384 256 l 1,29,-1
 384 192 l 1,30,-1
 384 128 l 1,31,-1
 384 64 l 1,32,-1
 384 0 l 1,33,-1
 320 0 l 1,34,-1
 320 64 l 1,35,-1
 320 128 l 1,36,-1
 320 192 l 1,37,-1
 320 256 l 1,38,-1
 256 256 l 1,39,-1
 192 256 l 1,40,-1
 128 256 l 1,41,-1
 128 192 l 1,42,-1
 128 128 l 1,43,-1
 128 64 l 1,44,-1
 128 0 l 1,45,-1
 64 0 l 1,0,-1
128 640 m 1,46,-1
 128 704 l 1,47,-1
 128 768 l 1,48,-1
 192 768 l 1,49,-1
 192 704 l 1,50,-1
 192 640 l 1,51,-1
 128 640 l 1,46,-1
256 640 m 1,52,-1
 256 704 l 1,53,-1
 256 768 l 1,54,-1
 320 768 l 1,55,-1
 320 704 l 1,56,-1
 320 640 l 1,57,-1
 256 640 l 1,52,-1
192 768 m 1,58,-1
 192 832 l 1,59,-1
 192 896 l 1,60,-1
 256 896 l 1,61,-1
 256 832 l 1,62,-1
 256 768 l 1,63,-1
 192 768 l 1,58,-1
EndSplineSet
EndChar

StartChar: B
Encoding: 66 66 17
Width: 448
Flags: W
LayerCount: 2
Back
Fore
SplineSet
64 0 m 1,0,-1
 64 64 l 1,1,-1
 64 128 l 1,2,-1
 64 192 l 1,3,-1
 64 256 l 1,4,-1
 64 320 l 1,5,-1
 64 384 l 1,6,-1
 64 448 l 1,7,-1
 64 512 l 1,8,-1
 64 576 l 1,9,-1
 64 640 l 1,10,-1
 64 704 l 1,11,-1
 64 768 l 1,12,-1
 64 832 l 1,13,-1
 64 896 l 1,14,-1
 128 896 l 1,15,-1
 192 896 l 1,16,-1
 256 896 l 1,17,-1
 320 896 l 1,18,-1
 320 832 l 1,19,-1
 320 768 l 1,20,-1
 256 768 l 1,21,-1
 192 768 l 1,22,-1
 128 768 l 1,23,-1
 128 704 l 1,24,-1
 128 640 l 1,25,-1
 128 576 l 1,26,-1
 128 512 l 1,27,-1
 192 512 l 1,28,-1
 256 512 l 1,29,-1
 320 512 l 1,30,-1
 320 448 l 1,31,-1
 320 384 l 1,32,-1
 256 384 l 1,33,-1
 192 384 l 1,34,-1
 128 384 l 1,35,-1
 128 320 l 1,36,-1
 128 256 l 1,37,-1
 128 192 l 1,38,-1
 128 128 l 1,39,-1
 192 128 l 1,40,-1
 256 128 l 1,41,-1
 320 128 l 1,42,-1
 320 64 l 1,43,-1
 320 0 l 1,44,-1
 256 0 l 1,45,-1
 192 0 l 1,46,-1
 128 0 l 1,47,-1
 64 0 l 1,0,-1
320 128 m 1,48,-1
 320 192 l 1,49,-1
 320 256 l 1,50,-1
 320 320 l 1,51,-1
 320 384 l 1,52,-1
 384 384 l 1,53,-1
 384 320 l 1,54,-1
 384 256 l 1,55,-1
 384 192 l 1,56,-1
 384 128 l 1,57,-1
 320 128 l 1,48,-1
320 512 m 1,58,-1
 320 576 l 1,59,-1
 320 640 l 1,60,-1
 320 704 l 1,61,-1
 320 768 l 1,62,-1
 384 768 l 1,63,-1
 384 704 l 1,64,-1
 384 640 l 1,65,-1
 384 576 l 1,66,-1
 384 512 l 1,67,-1
 320 512 l 1,58,-1
EndSplineSet
EndChar

StartChar: C
Encoding: 67 67 18
Width: 448
Flags: W
LayerCount: 2
Back
Fore
SplineSet
128 0 m 1,0,-1
 128 64 l 1,1,-1
 128 128 l 1,2,-1
 192 128 l 1,3,-1
 256 128 l 1,4,-1
 320 128 l 1,5,-1
 320 64 l 1,6,-1
 320 0 l 1,7,-1
 256 0 l 1,8,-1
 192 0 l 1,9,-1
 128 0 l 1,0,-1
64 128 m 1,10,-1
 64 192 l 1,11,-1
 64 256 l 1,12,-1
 64 320 l 1,13,-1
 64 384 l 1,14,-1
 64 448 l 1,15,-1
 64 512 l 1,16,-1
 64 576 l 1,17,-1
 64 640 l 1,18,-1
 64 704 l 1,19,-1
 64 768 l 1,20,-1
 128 768 l 1,21,-1
 128 704 l 1,22,-1
 128 640 l 1,23,-1
 128 576 l 1,24,-1
 128 512 l 1,25,-1
 128 448 l 1,26,-1
 128 384 l 1,27,-1
 128 320 l 1,28,-1
 128 256 l 1,29,-1
 128 192 l 1,30,-1
 128 128 l 1,31,-1
 64 128 l 1,10,-1
320 128 m 1,32,-1
 320 192 l 1,33,-1
 320 256 l 1,34,-1
 384 256 l 1,35,-1
 384 192 l 1,36,-1
 384 128 l 1,37,-1
 320 128 l 1,32,-1
320 640 m 1,38,-1
 320 704 l 1,39,-1
 320 768 l 1,40,-1
 384 768 l 1,41,-1
 384 704 l 1,42,-1
 384 640 l 1,43,-1
 320 640 l 1,38,-1
128 768 m 1,44,-1
 128 832 l 1,45,-1
 128 896 l 1,46,-1
 192 896 l 1,47,-1
 256 896 l 1,48,-1
 320 896 l 1,49,-1
 320 832 l 1,50,-1
 320 768 l 1,51,-1
 256 768 l 1,52,-1
 192 768 l 1,53,-1
 128 768 l 1,44,-1
EndSplineSet
EndChar

StartChar: D
Encoding: 68 68 19
Width: 448
Flags: W
LayerCount: 2
Back
Fore
SplineSet
64 0 m 1,0,-1
 64 64 l 1,1,-1
 64 128 l 1,2,-1
 64 192 l 1,3,-1
 64 256 l 1,4,-1
 64 320 l 1,5,-1
 64 384 l 1,6,-1
 64 448 l 1,7,-1
 64 512 l 1,8,-1
 64 576 l 1,9,-1
 64 640 l 1,10,-1
 64 704 l 1,11,-1
 64 768 l 1,12,-1
 64 832 l 1,13,-1
 64 896 l 1,14,-1
 128 896 l 1,15,-1
 192 896 l 1,16,-1
 256 896 l 1,17,-1
 320 896 l 1,18,-1
 320 832 l 1,19,-1
 320 768 l 1,20,-1
 256 768 l 1,21,-1
 192 768 l 1,22,-1
 128 768 l 1,23,-1
 128 704 l 1,24,-1
 128 640 l 1,25,-1
 128 576 l 1,26,-1
 128 512 l 1,27,-1
 128 448 l 1,28,-1
 128 384 l 1,29,-1
 128 320 l 1,30,-1
 128 256 l 1,31,-1
 128 192 l 1,32,-1
 128 128 l 1,33,-1
 192 128 l 1,34,-1
 256 128 l 1,35,-1
 320 128 l 1,36,-1
 320 64 l 1,37,-1
 320 0 l 1,38,-1
 256 0 l 1,39,-1
 192 0 l 1,40,-1
 128 0 l 1,41,-1
 64 0 l 1,0,-1
320 128 m 1,42,-1
 320 192 l 1,43,-1
 320 256 l 1,44,-1
 320 320 l 1,45,-1
 320 384 l 1,46,-1
 320 448 l 1,47,-1
 320 512 l 1,48,-1
 320 576 l 1,49,-1
 320 640 l 1,50,-1
 320 704 l 1,51,-1
 320 768 l 1,52,-1
 384 768 l 1,53,-1
 384 704 l 1,54,-1
 384 640 l 1,55,-1
 384 576 l 1,56,-1
 384 512 l 1,57,-1
 384 448 l 1,58,-1
 384 384 l 1,59,-1
 384 320 l 1,60,-1
 384 256 l 1,61,-1
 384 192 l 1,62,-1
 384 128 l 1,63,-1
 320 128 l 1,42,-1
EndSplineSet
EndChar

StartChar: E
Encoding: 69 69 20
Width: 448
Flags: W
LayerCount: 2
Back
Fore
SplineSet
64 0 m 1,0,-1
 64 64 l 1,1,-1
 64 128 l 1,2,-1
 64 192 l 1,3,-1
 64 256 l 1,4,-1
 64 320 l 1,5,-1
 64 384 l 1,6,-1
 64 448 l 1,7,-1
 64 512 l 1,8,-1
 64 576 l 1,9,-1
 64 640 l 1,10,-1
 64 704 l 1,11,-1
 64 768 l 1,12,-1
 64 832 l 1,13,-1
 64 896 l 1,14,-1
 128 896 l 1,15,-1
 192 896 l 1,16,-1
 256 896 l 1,17,-1
 320 896 l 1,18,-1
 384 896 l 1,19,-1
 384 832 l 1,20,-1
 384 768 l 1,21,-1
 320 768 l 1,22,-1
 256 768 l 1,23,-1
 192 768 l 1,24,-1
 128 768 l 1,25,-1
 128 704 l 1,26,-1
 128 640 l 1,27,-1
 128 576 l 1,28,-1
 128 512 l 1,29,-1
 192 512 l 1,30,-1
 256 512 l 1,31,-1
 320 512 l 1,32,-1
 320 448 l 1,33,-1
 320 384 l 1,34,-1
 256 384 l 1,35,-1
 192 384 l 1,36,-1
 128 384 l 1,37,-1
 128 320 l 1,38,-1
 128 256 l 1,39,-1
 128 192 l 1,40,-1
 128 128 l 1,41,-1
 192 128 l 1,42,-1
 256 128 l 1,43,-1
 320 128 l 1,44,-1
 384 128 l 1,45,-1
 384 64 l 1,46,-1
 384 0 l 1,47,-1
 320 0 l 1,48,-1
 256 0 l 1,49,-1
 192 0 l 1,50,-1
 128 0 l 1,51,-1
 64 0 l 1,0,-1
EndSplineSet
EndChar

StartChar: F
Encoding: 70 70 21
Width: 448
Flags: W
LayerCount: 2
Back
Fore
SplineSet
64 0 m 1,0,-1
 64 64 l 1,1,-1
 64 128 l 1,2,-1
 64 192 l 1,3,-1
 64 256 l 1,4,-1
 64 320 l 1,5,-1
 64 384 l 1,6,-1
 64 448 l 1,7,-1
 64 512 l 1,8,-1
 64 576 l 1,9,-1
 64 640 l 1,10,-1
 64 704 l 1,11,-1
 64 768 l 1,12,-1
 64 832 l 1,13,-1
 64 896 l 1,14,-1
 128 896 l 1,15,-1
 192 896 l 1,16,-1
 256 896 l 1,17,-1
 320 896 l 1,18,-1
 384 896 l 1,19,-1
 384 832 l 1,20,-1
 384 768 l 1,21,-1
 320 768 l 1,22,-1
 256 768 l 1,23,-1
 192 768 l 1,24,-1
 128 768 l 1,25,-1
 128 704 l 1,26,-1
 128 640 l 1,27,-1
 128 576 l 1,28,-1
 128 512 l 1,29,-1
 192 512 l 1,30,-1
 256 512 l 1,31,-1
 320 512 l 1,32,-1
 320 448 l 1,33,-1
 320 384 l 1,34,-1
 256 384 l 1,35,-1
 192 384 l 1,36,-1
 128 384 l 1,37,-1
 128 320 l 1,38,-1
 128 256 l 1,39,-1
 128 192 l 1,40,-1
 128 128 l 1,41,-1
 128 64 l 1,42,-1
 128 0 l 1,43,-1
 64 0 l 1,0,-1
EndSplineSet
EndChar

StartChar: G
Encoding: 71 71 22
Width: 448
Flags: W
LayerCount: 2
Back
Fore
SplineSet
128 0 m 1,0,-1
 128 64 l 1,1,-1
 128 128 l 1,2,-1
 192 128 l 1,3,-1
 256 128 l 1,4,-1
 320 128 l 1,5,-1
 320 192 l 1,6,-1
 320 256 l 1,7,-1
 256 256 l 1,8,-1
 256 320 l 1,9,-1
 256 384 l 1,10,-1
 320 384 l 1,11,-1
 384 384 l 1,12,-1
 384 320 l 1,13,-1
 384 256 l 1,14,-1
 384 192 l 1,15,-1
 384 128 l 1,16,-1
 384 64 l 1,17,-1
 384 0 l 1,18,-1
 320 0 l 1,19,-1
 256 0 l 1,20,-1
 192 0 l 1,21,-1
 128 0 l 1,0,-1
64 128 m 1,22,-1
 64 192 l 1,23,-1
 64 256 l 1,24,-1
 64 320 l 1,25,-1
 64 384 l 1,26,-1
 64 448 l 1,27,-1
 64 512 l 1,28,-1
 64 576 l 1,29,-1
 64 640 l 1,30,-1
 64 704 l 1,31,-1
 64 768 l 1,32,-1
 128 768 l 1,33,-1
 128 704 l 1,34,-1
 128 640 l 1,35,-1
 128 576 l 1,36,-1
 128 512 l 1,37,-1
 128 448 l 1,38,-1
 128 384 l 1,39,-1
 128 320 l 1,40,-1
 128 256 l 1,41,-1
 128 192 l 1,42,-1
 128 128 l 1,43,-1
 64 128 l 1,22,-1
320 640 m 1,44,-1
 320 704 l 1,45,-1
 320 768 l 1,46,-1
 384 768 l 1,47,-1
 384 704 l 1,48,-1
 384 640 l 1,49,-1
 320 640 l 1,44,-1
128 768 m 1,50,-1
 128 832 l 1,51,-1
 128 896 l 1,52,-1
 192 896 l 1,53,-1
 256 896 l 1,54,-1
 320 896 l 1,55,-1
 320 832 l 1,56,-1
 320 768 l 1,57,-1
 256 768 l 1,58,-1
 192 768 l 1,59,-1
 128 768 l 1,50,-1
EndSplineSet
EndChar

StartChar: H
Encoding: 72 72 23
Width: 448
Flags: W
LayerCount: 2
Back
Fore
SplineSet
64 0 m 1,0,-1
 64 64 l 1,1,-1
 64 128 l 1,2,-1
 64 192 l 1,3,-1
 64 256 l 1,4,-1
 64 320 l 1,5,-1
 64 384 l 1,6,-1
 64 448 l 1,7,-1
 64 512 l 1,8,-1
 64 576 l 1,9,-1
 64 640 l 1,10,-1
 64 704 l 1,11,-1
 64 768 l 1,12,-1
 64 832 l 1,13,-1
 64 896 l 1,14,-1
 128 896 l 1,15,-1
 128 832 l 1,16,-1
 128 768 l 1,17,-1
 128 704 l 1,18,-1
 128 640 l 1,19,-1
 128 576 l 1,20,-1
 128 512 l 1,21,-1
 192 512 l 1,22,-1
 256 512 l 1,23,-1
 320 512 l 1,24,-1
 320 576 l 1,25,-1
 320 640 l 1,26,-1
 320 704 l 1,27,-1
 320 768 l 1,28,-1
 320 832 l 1,29,-1
 320 896 l 1,30,-1
 384 896 l 1,31,-1
 384 832 l 1,32,-1
 384 768 l 1,33,-1
 384 704 l 1,34,-1
 384 640 l 1,35,-1
 384 576 l 1,36,-1
 384 512 l 1,37,-1
 384 448 l 1,38,-1
 384 384 l 1,39,-1
 384 320 l 1,40,-1
 384 256 l 1,41,-1
 384 192 l 1,42,-1
 384 128 l 1,43,-1
 384 64 l 1,44,-1
 384 0 l 1,45,-1
 320 0 l 1,46,-1
 320 64 l 1,47,-1
 320 128 l 1,48,-1
 320 192 l 1,49,-1
 320 256 l 1,50,-1
 320 320 l 1,51,-1
 320 384 l 1,52,-1
 256 384 l 1,53,-1
 192 384 l 1,54,-1
 128 384 l 1,55,-1
 128 320 l 1,56,-1
 128 256 l 1,57,-1
 128 192 l 1,58,-1
 128 128 l 1,59,-1
 128 64 l 1,60,-1
 128 0 l 1,61,-1
 64 0 l 1,0,-1
EndSplineSet
EndChar

StartChar: I
Encoding: 73 73 24
Width: 448
Flags: W
LayerCount: 2
Back
Fore
SplineSet
128 0 m 1,0,-1
 128 64 l 1,1,-1
 128 128 l 1,2,-1
 192 128 l 1,3,-1
 192 192 l 1,4,-1
 192 256 l 1,5,-1
 192 320 l 1,6,-1
 192 384 l 1,7,-1
 192 448 l 1,8,-1
 192 512 l 1,9,-1
 192 576 l 1,10,-1
 192 640 l 1,11,-1
 192 704 l 1,12,-1
 192 768 l 1,13,-1
 128 768 l 1,14,-1
 128 832 l 1,15,-1
 128 896 l 1,16,-1
 192 896 l 1,17,-1
 256 896 l 1,18,-1
 320 896 l 1,19,-1
 320 832 l 1,20,-1
 320 768 l 1,21,-1
 256 768 l 1,22,-1
 256 704 l 1,23,-1
 256 640 l 1,24,-1
 256 576 l 1,25,-1
 256 512 l 1,26,-1
 256 448 l 1,27,-1
 256 384 l 1,28,-1
 256 320 l 1,29,-1
 256 256 l 1,30,-1
 256 192 l 1,31,-1
 256 128 l 1,32,-1
 320 128 l 1,33,-1
 320 64 l 1,34,-1
 320 0 l 1,35,-1
 256 0 l 1,36,-1
 192 0 l 1,37,-1
 128 0 l 1,0,-1
EndSplineSet
EndChar

StartChar: J
Encoding: 74 74 25
Width: 448
Flags: W
LayerCount: 2
Back
Fore
SplineSet
128 0 m 1,0,-1
 128 64 l 1,1,-1
 128 128 l 1,2,-1
 192 128 l 1,3,-1
 256 128 l 1,4,-1
 320 128 l 1,5,-1
 320 64 l 1,6,-1
 320 0 l 1,7,-1
 256 0 l 1,8,-1
 192 0 l 1,9,-1
 128 0 l 1,0,-1
64 128 m 1,10,-1
 64 192 l 1,11,-1
 64 256 l 1,12,-1
 128 256 l 1,13,-1
 128 192 l 1,14,-1
 128 128 l 1,15,-1
 64 128 l 1,10,-1
320 128 m 1,16,-1
 320 192 l 1,17,-1
 320 256 l 1,18,-1
 320 320 l 1,19,-1
 320 384 l 1,20,-1
 320 448 l 1,21,-1
 320 512 l 1,22,-1
 320 576 l 1,23,-1
 320 640 l 1,24,-1
 320 704 l 1,25,-1
 320 768 l 1,26,-1
 320 832 l 1,27,-1
 320 896 l 1,28,-1
 384 896 l 1,29,-1
 384 832 l 1,30,-1
 384 768 l 1,31,-1
 384 704 l 1,32,-1
 384 640 l 1,33,-1
 384 576 l 1,34,-1
 384 512 l 1,35,-1
 384 448 l 1,36,-1
 384 384 l 1,37,-1
 384 320 l 1,38,-1
 384 256 l 1,39,-1
 384 192 l 1,40,-1
 384 128 l 1,41,-1
 320 128 l 1,16,-1
EndSplineSet
EndChar

StartChar: K
Encoding: 75 75 26
Width: 448
Flags: W
LayerCount: 2
Back
Fore
SplineSet
64 0 m 1,0,-1
 64 64 l 1,1,-1
 64 128 l 1,2,-1
 64 192 l 1,3,-1
 64 256 l 1,4,-1
 64 320 l 1,5,-1
 64 384 l 1,6,-1
 64 448 l 1,7,-1
 64 512 l 1,8,-1
 64 576 l 1,9,-1
 64 640 l 1,10,-1
 64 704 l 1,11,-1
 64 768 l 1,12,-1
 64 832 l 1,13,-1
 64 896 l 1,14,-1
 128 896 l 1,15,-1
 128 832 l 1,16,-1
 128 768 l 1,17,-1
 128 704 l 1,18,-1
 128 640 l 1,19,-1
 128 576 l 1,20,-1
 128 512 l 1,21,-1
 192 512 l 1,22,-1
 192 448 l 1,23,-1
 192 384 l 1,24,-1
 128 384 l 1,25,-1
 128 320 l 1,26,-1
 128 256 l 1,27,-1
 128 192 l 1,28,-1
 128 128 l 1,29,-1
 128 64 l 1,30,-1
 128 0 l 1,31,-1
 64 0 l 1,0,-1
320 0 m 1,32,-1
 320 64 l 1,33,-1
 320 128 l 1,34,-1
 384 128 l 1,35,-1
 384 64 l 1,36,-1
 384 0 l 1,37,-1
 320 0 l 1,32,-1
256 128 m 1,38,-1
 256 192 l 1,39,-1
 256 256 l 1,40,-1
 320 256 l 1,41,-1
 320 192 l 1,42,-1
 320 128 l 1,43,-1
 256 128 l 1,38,-1
192 256 m 1,44,-1
 192 320 l 1,45,-1
 192 384 l 1,46,-1
 256 384 l 1,47,-1
 256 320 l 1,48,-1
 256 256 l 1,49,-1
 192 256 l 1,44,-1
192 512 m 1,50,-1
 192 576 l 1,51,-1
 192 640 l 1,52,-1
 256 640 l 1,53,-1
 256 576 l 1,54,-1
 256 512 l 1,55,-1
 192 512 l 1,50,-1
256 640 m 1,56,-1
 256 704 l 1,57,-1
 256 768 l 1,58,-1
 320 768 l 1,59,-1
 320 704 l 1,60,-1
 320 640 l 1,61,-1
 256 640 l 1,56,-1
320 768 m 1,62,-1
 320 832 l 1,63,-1
 320 896 l 1,64,-1
 384 896 l 1,65,-1
 384 832 l 1,66,-1
 384 768 l 1,67,-1
 320 768 l 1,62,-1
EndSplineSet
EndChar

StartChar: L
Encoding: 76 76 27
Width: 448
Flags: W
LayerCount: 2
Back
Fore
SplineSet
64 0 m 1,0,-1
 64 64 l 1,1,-1
 64 128 l 1,2,-1
 64 192 l 1,3,-1
 64 256 l 1,4,-1
 64 320 l 1,5,-1
 64 384 l 1,6,-1
 64 448 l 1,7,-1
 64 512 l 1,8,-1
 64 576 l 1,9,-1
 64 640 l 1,10,-1
 64 704 l 1,11,-1
 64 768 l 1,12,-1
 64 832 l 1,13,-1
 64 896 l 1,14,-1
 128 896 l 1,15,-1
 128 832 l 1,16,-1
 128 768 l 1,17,-1
 128 704 l 1,18,-1
 128 640 l 1,19,-1
 128 576 l 1,20,-1
 128 512 l 1,21,-1
 128 448 l 1,22,-1
 128 384 l 1,23,-1
 128 320 l 1,24,-1
 128 256 l 1,25,-1
 128 192 l 1,26,-1
 128 128 l 1,27,-1
 192 128 l 1,28,-1
 256 128 l 1,29,-1
 320 128 l 1,30,-1
 384 128 l 1,31,-1
 384 64 l 1,32,-1
 384 0 l 1,33,-1
 320 0 l 1,34,-1
 256 0 l 1,35,-1
 192 0 l 1,36,-1
 128 0 l 1,37,-1
 64 0 l 1,0,-1
EndSplineSet
EndChar

StartChar: M
Encoding: 77 77 28
Width: 448
Flags: W
LayerCount: 2
Back
Fore
SplineSet
64 0 m 1,0,-1
 64 64 l 1,1,-1
 64 128 l 1,2,-1
 64 192 l 1,3,-1
 64 256 l 1,4,-1
 64 320 l 1,5,-1
 64 384 l 1,6,-1
 64 448 l 1,7,-1
 64 512 l 1,8,-1
 64 576 l 1,9,-1
 64 640 l 1,10,-1
 64 704 l 1,11,-1
 64 768 l 1,12,-1
 64 832 l 1,13,-1
 64 896 l 1,14,-1
 128 896 l 1,15,-1
 128 832 l 1,16,-1
 128 768 l 1,17,-1
 192 768 l 1,18,-1
 192 704 l 1,19,-1
 192 640 l 1,20,-1
 128 640 l 1,21,-1
 128 576 l 1,22,-1
 128 512 l 1,23,-1
 128 448 l 1,24,-1
 128 384 l 1,25,-1
 128 320 l 1,26,-1
 128 256 l 1,27,-1
 128 192 l 1,28,-1
 128 128 l 1,29,-1
 128 64 l 1,30,-1
 128 0 l 1,31,-1
 64 0 l 1,0,-1
320 0 m 1,32,-1
 320 64 l 1,33,-1
 320 128 l 1,34,-1
 320 192 l 1,35,-1
 320 256 l 1,36,-1
 320 320 l 1,37,-1
 320 384 l 1,38,-1
 320 448 l 1,39,-1
 320 512 l 1,40,-1
 320 576 l 1,41,-1
 320 640 l 1,42,-1
 256 640 l 1,43,-1
 256 704 l 1,44,-1
 256 768 l 1,45,-1
 320 768 l 1,46,-1
 320 832 l 1,47,-1
 320 896 l 1,48,-1
 384 896 l 1,49,-1
 384 832 l 1,50,-1
 384 768 l 1,51,-1
 384 704 l 1,52,-1
 384 640 l 1,53,-1
 384 576 l 1,54,-1
 384 512 l 1,55,-1
 384 448 l 1,56,-1
 384 384 l 1,57,-1
 384 320 l 1,58,-1
 384 256 l 1,59,-1
 384 192 l 1,60,-1
 384 128 l 1,61,-1
 384 64 l 1,62,-1
 384 0 l 1,63,-1
 320 0 l 1,32,-1
192 384 m 1,64,-1
 192 448 l 1,65,-1
 192 512 l 1,66,-1
 192 576 l 1,67,-1
 192 640 l 1,68,-1
 256 640 l 1,69,-1
 256 576 l 1,70,-1
 256 512 l 1,71,-1
 256 448 l 1,72,-1
 256 384 l 1,73,-1
 192 384 l 1,64,-1
EndSplineSet
EndChar

StartChar: N
Encoding: 78 78 29
Width: 448
Flags: W
LayerCount: 2
Back
Fore
SplineSet
64 0 m 1,0,-1
 64 64 l 1,1,-1
 64 128 l 1,2,-1
 64 192 l 1,3,-1
 64 256 l 1,4,-1
 64 320 l 1,5,-1
 64 384 l 1,6,-1
 64 448 l 1,7,-1
 64 512 l 1,8,-1
 64 576 l 1,9,-1
 64 640 l 1,10,-1
 64 704 l 1,11,-1
 64 768 l 1,12,-1
 64 832 l 1,13,-1
 64 896 l 1,14,-1
 128 896 l 1,15,-1
 128 832 l 1,16,-1
 128 768 l 1,17,-1
 128 704 l 1,18,-1
 128 640 l 1,19,-1
 192 640 l 1,20,-1
 192 576 l 1,21,-1
 192 512 l 1,22,-1
 128 512 l 1,23,-1
 128 448 l 1,24,-1
 128 384 l 1,25,-1
 128 320 l 1,26,-1
 128 256 l 1,27,-1
 128 192 l 1,28,-1
 128 128 l 1,29,-1
 128 64 l 1,30,-1
 128 0 l 1,31,-1
 64 0 l 1,0,-1
320 0 m 1,32,-1
 320 64 l 1,33,-1
 320 128 l 1,34,-1
 320 192 l 1,35,-1
 320 256 l 1,36,-1
 256 256 l 1,37,-1
 256 320 l 1,38,-1
 256 384 l 1,39,-1
 320 384 l 1,40,-1
 320 448 l 1,41,-1
 320 512 l 1,42,-1
 320 576 l 1,43,-1
 320 640 l 1,44,-1
 320 704 l 1,45,-1
 320 768 l 1,46,-1
 320 832 l 1,47,-1
 320 896 l 1,48,-1
 384 896 l 1,49,-1
 384 832 l 1,50,-1
 384 768 l 1,51,-1
 384 704 l 1,52,-1
 384 640 l 1,53,-1
 384 576 l 1,54,-1
 384 512 l 1,55,-1
 384 448 l 1,56,-1
 384 384 l 1,57,-1
 384 320 l 1,58,-1
 384 256 l 1,59,-1
 384 192 l 1,60,-1
 384 128 l 1,61,-1
 384 64 l 1,62,-1
 384 0 l 1,63,-1
 320 0 l 1,32,-1
192 384 m 1,64,-1
 192 448 l 1,65,-1
 192 512 l 1,66,-1
 256 512 l 1,67,-1
 256 448 l 1,68,-1
 256 384 l 1,69,-1
 192 384 l 1,64,-1
EndSplineSet
EndChar

StartChar: O
Encoding: 79 79 30
Width: 448
Flags: W
LayerCount: 2
Back
Fore
SplineSet
128 0 m 1,0,-1
 128 64 l 1,1,-1
 128 128 l 1,2,-1
 192 128 l 1,3,-1
 256 128 l 1,4,-1
 320 128 l 1,5,-1
 320 64 l 1,6,-1
 320 0 l 1,7,-1
 256 0 l 1,8,-1
 192 0 l 1,9,-1
 128 0 l 1,0,-1
64 128 m 1,10,-1
 64 192 l 1,11,-1
 64 256 l 1,12,-1
 64 320 l 1,13,-1
 64 384 l 1,14,-1
 64 448 l 1,15,-1
 64 512 l 1,16,-1
 64 576 l 1,17,-1
 64 640 l 1,18,-1
 64 704 l 1,19,-1
 64 768 l 1,20,-1
 128 768 l 1,21,-1
 128 704 l 1,22,-1
 128 640 l 1,23,-1
 128 576 l 1,24,-1
 128 512 l 1,25,-1
 128 448 l 1,26,-1
 128 384 l 1,27,-1
 128 320 l 1,28,-1
 128 256 l 1,29,-1
 128 192 l 1,30,-1
 128 128 l 1,31,-1
 64 128 l 1,10,-1
320 128 m 1,32,-1
 320 192 l 1,33,-1
 320 256 l 1,34,-1
 320 320 l 1,35,-1
 320 384 l 1,36,-1
 320 448 l 1,37,-1
 320 512 l 1,38,-1
 320 576 l 1,39,-1
 320 640 l 1,40,-1
 320 704 l 1,41,-1
 320 768 l 1,42,-1
 384 768 l 1,43,-1
 384 704 l 1,44,-1
 384 640 l 1,45,-1
 384 576 l 1,46,-1
 384 512 l 1,47,-1
 384 448 l 1,48,-1
 384 384 l 1,49,-1
 384 320 l 1,50,-1
 384 256 l 1,51,-1
 384 192 l 1,52,-1
 384 128 l 1,53,-1
 320 128 l 1,32,-1
128 768 m 1,54,-1
 128 832 l 1,55,-1
 128 896 l 1,56,-1
 192 896 l 1,57,-1
 256 896 l 1,58,-1
 320 896 l 1,59,-1
 320 832 l 1,60,-1
 320 768 l 1,61,-1
 256 768 l 1,62,-1
 192 768 l 1,63,-1
 128 768 l 1,54,-1
EndSplineSet
EndChar

StartChar: P
Encoding: 80 80 31
Width: 448
Flags: W
LayerCount: 2
Back
Fore
SplineSet
64 0 m 1,0,-1
 64 64 l 1,1,-1
 64 128 l 1,2,-1
 64 192 l 1,3,-1
 64 256 l 1,4,-1
 64 320 l 1,5,-1
 64 384 l 1,6,-1
 64 448 l 1,7,-1
 64 512 l 1,8,-1
 64 576 l 1,9,-1
 64 640 l 1,10,-1
 64 704 l 1,11,-1
 64 768 l 1,12,-1
 64 832 l 1,13,-1
 64 896 l 1,14,-1
 128 896 l 1,15,-1
 192 896 l 1,16,-1
 256 896 l 1,17,-1
 320 896 l 1,18,-1
 320 832 l 1,19,-1
 320 768 l 1,20,-1
 256 768 l 1,21,-1
 192 768 l 1,22,-1
 128 768 l 1,23,-1
 128 704 l 1,24,-1
 128 640 l 1,25,-1
 128 576 l 1,26,-1
 128 512 l 1,27,-1
 192 512 l 1,28,-1
 256 512 l 1,29,-1
 320 512 l 1,30,-1
 320 448 l 1,31,-1
 320 384 l 1,32,-1
 256 384 l 1,33,-1
 192 384 l 1,34,-1
 128 384 l 1,35,-1
 128 320 l 1,36,-1
 128 256 l 1,37,-1
 128 192 l 1,38,-1
 128 128 l 1,39,-1
 128 64 l 1,40,-1
 128 0 l 1,41,-1
 64 0 l 1,0,-1
320 512 m 1,42,-1
 320 576 l 1,43,-1
 320 640 l 1,44,-1
 320 704 l 1,45,-1
 320 768 l 1,46,-1
 384 768 l 1,47,-1
 384 704 l 1,48,-1
 384 640 l 1,49,-1
 384 576 l 1,50,-1
 384 512 l 1,51,-1
 320 512 l 1,42,-1
EndSplineSet
EndChar

StartChar: Q
Encoding: 81 81 32
Width: 448
Flags: W
LayerCount: 2
Back
Fore
SplineSet
128 0 m 1,0,-1
 128 64 l 1,1,-1
 128 128 l 1,2,-1
 192 128 l 1,3,-1
 256 128 l 1,4,-1
 256 64 l 1,5,-1
 256 0 l 1,6,-1
 192 0 l 1,7,-1
 128 0 l 1,0,-1
320 0 m 1,8,-1
 320 64 l 1,9,-1
 320 128 l 1,10,-1
 384 128 l 1,11,-1
 384 64 l 1,12,-1
 384 0 l 1,13,-1
 320 0 l 1,8,-1
64 128 m 1,14,-1
 64 192 l 1,15,-1
 64 256 l 1,16,-1
 64 320 l 1,17,-1
 64 384 l 1,18,-1
 64 448 l 1,19,-1
 64 512 l 1,20,-1
 64 576 l 1,21,-1
 64 640 l 1,22,-1
 64 704 l 1,23,-1
 64 768 l 1,24,-1
 128 768 l 1,25,-1
 128 704 l 1,26,-1
 128 640 l 1,27,-1
 128 576 l 1,28,-1
 128 512 l 1,29,-1
 128 448 l 1,30,-1
 128 384 l 1,31,-1
 128 320 l 1,32,-1
 128 256 l 1,33,-1
 128 192 l 1,34,-1
 128 128 l 1,35,-1
 64 128 l 1,14,-1
256 128 m 1,36,-1
 256 192 l 1,37,-1
 256 256 l 1,38,-1
 320 256 l 1,39,-1
 320 192 l 1,40,-1
 320 128 l 1,41,-1
 256 128 l 1,36,-1
192 256 m 1,42,-1
 192 320 l 1,43,-1
 192 384 l 1,44,-1
 256 384 l 1,45,-1
 256 320 l 1,46,-1
 256 256 l 1,47,-1
 192 256 l 1,42,-1
320 256 m 1,48,-1
 320 320 l 1,49,-1
 320 384 l 1,50,-1
 320 448 l 1,51,-1
 320 512 l 1,52,-1
 320 576 l 1,53,-1
 320 640 l 1,54,-1
 320 704 l 1,55,-1
 320 768 l 1,56,-1
 384 768 l 1,57,-1
 384 704 l 1,58,-1
 384 640 l 1,59,-1
 384 576 l 1,60,-1
 384 512 l 1,61,-1
 384 448 l 1,62,-1
 384 384 l 1,63,-1
 384 320 l 1,64,-1
 384 256 l 1,65,-1
 320 256 l 1,48,-1
128 768 m 1,66,-1
 128 832 l 1,67,-1
 128 896 l 1,68,-1
 192 896 l 1,69,-1
 256 896 l 1,70,-1
 320 896 l 1,71,-1
 320 832 l 1,72,-1
 320 768 l 1,73,-1
 256 768 l 1,74,-1
 192 768 l 1,75,-1
 128 768 l 1,66,-1
EndSplineSet
EndChar

StartChar: R
Encoding: 82 82 33
Width: 448
Flags: W
LayerCount: 2
Back
Fore
SplineSet
64 0 m 1,0,-1
 64 64 l 1,1,-1
 64 128 l 1,2,-1
 64 192 l 1,3,-1
 64 256 l 1,4,-1
 64 320 l 1,5,-1
 64 384 l 1,6,-1
 64 448 l 1,7,-1
 64 512 l 1,8,-1
 64 576 l 1,9,-1
 64 640 l 1,10,-1
 64 704 l 1,11,-1
 64 768 l 1,12,-1
 64 832 l 1,13,-1
 64 896 l 1,14,-1
 128 896 l 1,15,-1
 192 896 l 1,16,-1
 256 896 l 1,17,-1
 320 896 l 1,18,-1
 320 832 l 1,19,-1
 320 768 l 1,20,-1
 256 768 l 1,21,-1
 192 768 l 1,22,-1
 128 768 l 1,23,-1
 128 704 l 1,24,-1
 128 640 l 1,25,-1
 128 576 l 1,26,-1
 128 512 l 1,27,-1
 192 512 l 1,28,-1
 256 512 l 1,29,-1
 320 512 l 1,30,-1
 320 448 l 1,31,-1
 320 384 l 1,32,-1
 256 384 l 1,33,-1
 256 320 l 1,34,-1
 256 256 l 1,35,-1
 192 256 l 1,36,-1
 192 320 l 1,37,-1
 192 384 l 1,38,-1
 128 384 l 1,39,-1
 128 320 l 1,40,-1
 128 256 l 1,41,-1
 128 192 l 1,42,-1
 128 128 l 1,43,-1
 128 64 l 1,44,-1
 128 0 l 1,45,-1
 64 0 l 1,0,-1
320 0 m 1,46,-1
 320 64 l 1,47,-1
 320 128 l 1,48,-1
 384 128 l 1,49,-1
 384 64 l 1,50,-1
 384 0 l 1,51,-1
 320 0 l 1,46,-1
256 128 m 1,52,-1
 256 192 l 1,53,-1
 256 256 l 1,54,-1
 320 256 l 1,55,-1
 320 192 l 1,56,-1
 320 128 l 1,57,-1
 256 128 l 1,52,-1
320 512 m 1,58,-1
 320 576 l 1,59,-1
 320 640 l 1,60,-1
 320 704 l 1,61,-1
 320 768 l 1,62,-1
 384 768 l 1,63,-1
 384 704 l 1,64,-1
 384 640 l 1,65,-1
 384 576 l 1,66,-1
 384 512 l 1,67,-1
 320 512 l 1,58,-1
EndSplineSet
EndChar

StartChar: S
Encoding: 83 83 34
Width: 448
Flags: W
LayerCount: 2
Back
Fore
SplineSet
128 0 m 1,0,-1
 128 64 l 1,1,-1
 128 128 l 1,2,-1
 192 128 l 1,3,-1
 256 128 l 1,4,-1
 320 128 l 1,5,-1
 320 64 l 1,6,-1
 320 0 l 1,7,-1
 256 0 l 1,8,-1
 192 0 l 1,9,-1
 128 0 l 1,0,-1
64 128 m 1,10,-1
 64 192 l 1,11,-1
 64 256 l 1,12,-1
 128 256 l 1,13,-1
 128 192 l 1,14,-1
 128 128 l 1,15,-1
 64 128 l 1,10,-1
320 128 m 1,16,-1
 320 192 l 1,17,-1
 320 256 l 1,18,-1
 320 320 l 1,19,-1
 320 384 l 1,20,-1
 384 384 l 1,21,-1
 384 320 l 1,22,-1
 384 256 l 1,23,-1
 384 192 l 1,24,-1
 384 128 l 1,25,-1
 320 128 l 1,16,-1
128 384 m 1,26,-1
 128 448 l 1,27,-1
 128 512 l 1,28,-1
 192 512 l 1,29,-1
 256 512 l 1,30,-1
 320 512 l 1,31,-1
 320 448 l 1,32,-1
 320 384 l 1,33,-1
 256 384 l 1,34,-1
 192 384 l 1,35,-1
 128 384 l 1,26,-1
64 512 m 1,36,-1
 64 576 l 1,37,-1
 64 640 l 1,38,-1
 64 704 l 1,39,-1
 64 768 l 1,40,-1
 128 768 l 1,41,-1
 128 704 l 1,42,-1
 128 640 l 1,43,-1
 128 576 l 1,44,-1
 128 512 l 1,45,-1
 64 512 l 1,36,-1
320 640 m 1,46,-1
 320 704 l 1,47,-1
 320 768 l 1,48,-1
 384 768 l 1,49,-1
 384 704 l 1,50,-1
 384 640 l 1,51,-1
 320 640 l 1,46,-1
128 768 m 1,52,-1
 128 832 l 1,53,-1
 128 896 l 1,54,-1
 192 896 l 1,55,-1
 256 896 l 1,56,-1
 320 896 l 1,57,-1
 320 832 l 1,58,-1
 320 768 l 1,59,-1
 256 768 l 1,60,-1
 192 768 l 1,61,-1
 128 768 l 1,52,-1
EndSplineSet
EndChar

StartChar: T
Encoding: 84 84 35
Width: 448
Flags: W
LayerCount: 2
Back
Fore
SplineSet
192 0 m 1,0,-1
 192 64 l 1,1,-1
 192 128 l 1,2,-1
 192 192 l 1,3,-1
 192 256 l 1,4,-1
 192 320 l 1,5,-1
 192 384 l 1,6,-1
 192 448 l 1,7,-1
 192 512 l 1,8,-1
 192 576 l 1,9,-1
 192 640 l 1,10,-1
 192 704 l 1,11,-1
 192 768 l 1,12,-1
 128 768 l 1,13,-1
 64 768 l 1,14,-1
 64 832 l 1,15,-1
 64 896 l 1,16,-1
 128 896 l 1,17,-1
 192 896 l 1,18,-1
 256 896 l 1,19,-1
 320 896 l 1,20,-1
 384 896 l 1,21,-1
 384 832 l 1,22,-1
 384 768 l 1,23,-1
 320 768 l 1,24,-1
 256 768 l 1,25,-1
 256 704 l 1,26,-1
 256 640 l 1,27,-1
 256 576 l 1,28,-1
 256 512 l 1,29,-1
 256 448 l 1,30,-1
 256 384 l 1,31,-1
 256 320 l 1,32,-1
 256 256 l 1,33,-1
 256 192 l 1,34,-1
 256 128 l 1,35,-1
 256 64 l 1,36,-1
 256 0 l 1,37,-1
 192 0 l 1,0,-1
EndSplineSet
EndChar

StartChar: U
Encoding: 85 85 36
Width: 448
Flags: W
LayerCount: 2
Back
Fore
SplineSet
128 0 m 1,0,-1
 128 64 l 1,1,-1
 128 128 l 1,2,-1
 192 128 l 1,3,-1
 256 128 l 1,4,-1
 320 128 l 1,5,-1
 320 64 l 1,6,-1
 320 0 l 1,7,-1
 256 0 l 1,8,-1
 192 0 l 1,9,-1
 128 0 l 1,0,-1
64 128 m 1,10,-1
 64 192 l 1,11,-1
 64 256 l 1,12,-1
 64 320 l 1,13,-1
 64 384 l 1,14,-1
 64 448 l 1,15,-1
 64 512 l 1,16,-1
 64 576 l 1,17,-1
 64 640 l 1,18,-1
 64 704 l 1,19,-1
 64 768 l 1,20,-1
 64 832 l 1,21,-1
 64 896 l 1,22,-1
 128 896 l 1,23,-1
 128 832 l 1,24,-1
 128 768 l 1,25,-1
 128 704 l 1,26,-1
 128 640 l 1,27,-1
 128 576 l 1,28,-1
 128 512 l 1,29,-1
 128 448 l 1,30,-1
 128 384 l 1,31,-1
 128 320 l 1,32,-1
 128 256 l 1,33,-1
 128 192 l 1,34,-1
 128 128 l 1,35,-1
 64 128 l 1,10,-1
320 128 m 1,36,-1
 320 192 l 1,37,-1
 320 256 l 1,38,-1
 320 320 l 1,39,-1
 320 384 l 1,40,-1
 320 448 l 1,41,-1
 320 512 l 1,42,-1
 320 576 l 1,43,-1
 320 640 l 1,44,-1
 320 704 l 1,45,-1
 320 768 l 1,46,-1
 320 832 l 1,47,-1
 320 896 l 1,48,-1
 384 896 l 1,49,-1
 384 832 l 1,50,-1
 384 768 l 1,51,-1
 384 704 l 1,52,-1
 384 640 l 1,53,-1
 384 576 l 1,54,-1
 384 512 l 1,55,-1
 384 448 l 1,56,-1
 384 384 l 1,57,-1
 384 320 l 1,58,-1
 384 256 l 1,59,-1
 384 192 l 1,60,-1
 384 128 l 1,61,-1
 320 128 l 1,36,-1
EndSplineSet
EndChar

StartChar: V
Encoding: 86 86 37
Width: 448
Flags: W
LayerCount: 2
Back
Fore
SplineSet
192 0 m 1,0,-1
 192 64 l 1,1,-1
 192 128 l 1,2,-1
 256 128 l 1,3,-1
 256 64 l 1,4,-1
 256 0 l 1,5,-1
 192 0 l 1,0,-1
128 128 m 1,6,-1
 128 192 l 1,7,-1
 128 256 l 1,8,-1
 192 256 l 1,9,-1
 192 192 l 1,10,-1
 192 128 l 1,11,-1
 128 128 l 1,6,-1
256 128 m 1,12,-1
 256 192 l 1,13,-1
 256 256 l 1,14,-1
 320 256 l 1,15,-1
 320 192 l 1,16,-1
 320 128 l 1,17,-1
 256 128 l 1,12,-1
64 256 m 1,18,-1
 64 320 l 1,19,-1
 64 384 l 1,20,-1
 64 448 l 1,21,-1
 64 512 l 1,22,-1
 64 576 l 1,23,-1
 64 640 l 1,24,-1
 64 704 l 1,25,-1
 64 768 l 1,26,-1
 64 832 l 1,27,-1
 64 896 l 1,28,-1
 128 896 l 1,29,-1
 128 832 l 1,30,-1
 128 768 l 1,31,-1
 128 704 l 1,32,-1
 128 640 l 1,33,-1
 128 576 l 1,34,-1
 128 512 l 1,35,-1
 128 448 l 1,36,-1
 128 384 l 1,37,-1
 128 320 l 1,38,-1
 128 256 l 1,39,-1
 64 256 l 1,18,-1
320 256 m 1,40,-1
 320 320 l 1,41,-1
 320 384 l 1,42,-1
 320 448 l 1,43,-1
 320 512 l 1,44,-1
 320 576 l 1,45,-1
 320 640 l 1,46,-1
 320 704 l 1,47,-1
 320 768 l 1,48,-1
 320 832 l 1,49,-1
 320 896 l 1,50,-1
 384 896 l 1,51,-1
 384 832 l 1,52,-1
 384 768 l 1,53,-1
 384 704 l 1,54,-1
 384 640 l 1,55,-1
 384 576 l 1,56,-1
 384 512 l 1,57,-1
 384 448 l 1,58,-1
 384 384 l 1,59,-1
 384 320 l 1,60,-1
 384 256 l 1,61,-1
 320 256 l 1,40,-1
EndSplineSet
EndChar

StartChar: W
Encoding: 87 87 38
Width: 448
Flags: W
LayerCount: 2
Back
Fore
SplineSet
64 0 m 1,0,-1
 64 64 l 1,1,-1
 64 128 l 1,2,-1
 64 192 l 1,3,-1
 64 256 l 1,4,-1
 64 320 l 1,5,-1
 64 384 l 1,6,-1
 64 448 l 1,7,-1
 64 512 l 1,8,-1
 64 576 l 1,9,-1
 64 640 l 1,10,-1
 64 704 l 1,11,-1
 64 768 l 1,12,-1
 64 832 l 1,13,-1
 64 896 l 1,14,-1
 128 896 l 1,15,-1
 128 832 l 1,16,-1
 128 768 l 1,17,-1
 128 704 l 1,18,-1
 128 640 l 1,19,-1
 128 576 l 1,20,-1
 128 512 l 1,21,-1
 128 448 l 1,22,-1
 128 384 l 1,23,-1
 128 320 l 1,24,-1
 128 256 l 1,25,-1
 192 256 l 1,26,-1
 192 192 l 1,27,-1
 192 128 l 1,28,-1
 128 128 l 1,29,-1
 128 64 l 1,30,-1
 128 0 l 1,31,-1
 64 0 l 1,0,-1
320 0 m 1,32,-1
 320 64 l 1,33,-1
 320 128 l 1,34,-1
 256 128 l 1,35,-1
 256 192 l 1,36,-1
 256 256 l 1,37,-1
 320 256 l 1,38,-1
 320 320 l 1,39,-1
 320 384 l 1,40,-1
 320 448 l 1,41,-1
 320 512 l 1,42,-1
 320 576 l 1,43,-1
 320 640 l 1,44,-1
 320 704 l 1,45,-1
 320 768 l 1,46,-1
 320 832 l 1,47,-1
 320 896 l 1,48,-1
 384 896 l 1,49,-1
 384 832 l 1,50,-1
 384 768 l 1,51,-1
 384 704 l 1,52,-1
 384 640 l 1,53,-1
 384 576 l 1,54,-1
 384 512 l 1,55,-1
 384 448 l 1,56,-1
 384 384 l 1,57,-1
 384 320 l 1,58,-1
 384 256 l 1,59,-1
 384 192 l 1,60,-1
 384 128 l 1,61,-1
 384 64 l 1,62,-1
 384 0 l 1,63,-1
 320 0 l 1,32,-1
192 256 m 1,64,-1
 192 320 l 1,65,-1
 192 384 l 1,66,-1
 192 448 l 1,67,-1
 192 512 l 1,68,-1
 256 512 l 1,69,-1
 256 448 l 1,70,-1
 256 384 l 1,71,-1
 256 320 l 1,72,-1
 256 256 l 1,73,-1
 192 256 l 1,64,-1
EndSplineSet
EndChar

StartChar: X
Encoding: 88 88 39
Width: 448
Flags: W
LayerCount: 2
Back
Fore
SplineSet
64 0 m 1,0,-1
 64 64 l 1,1,-1
 64 128 l 1,2,-1
 64 192 l 1,3,-1
 64 256 l 1,4,-1
 128 256 l 1,5,-1
 128 192 l 1,6,-1
 128 128 l 1,7,-1
 128 64 l 1,8,-1
 128 0 l 1,9,-1
 64 0 l 1,0,-1
320 0 m 1,10,-1
 320 64 l 1,11,-1
 320 128 l 1,12,-1
 320 192 l 1,13,-1
 320 256 l 1,14,-1
 384 256 l 1,15,-1
 384 192 l 1,16,-1
 384 128 l 1,17,-1
 384 64 l 1,18,-1
 384 0 l 1,19,-1
 320 0 l 1,10,-1
128 256 m 1,20,-1
 128 320 l 1,21,-1
 128 384 l 1,22,-1
 192 384 l 1,23,-1
 192 320 l 1,24,-1
 192 256 l 1,25,-1
 128 256 l 1,20,-1
256 256 m 1,26,-1
 256 320 l 1,27,-1
 256 384 l 1,28,-1
 320 384 l 1,29,-1
 320 320 l 1,30,-1
 320 256 l 1,31,-1
 256 256 l 1,26,-1
192 384 m 1,32,-1
 192 448 l 1,33,-1
 192 512 l 1,34,-1
 256 512 l 1,35,-1
 256 448 l 1,36,-1
 256 384 l 1,37,-1
 192 384 l 1,32,-1
128 512 m 1,38,-1
 128 576 l 1,39,-1
 128 640 l 1,40,-1
 192 640 l 1,41,-1
 192 576 l 1,42,-1
 192 512 l 1,43,-1
 128 512 l 1,38,-1
256 512 m 1,44,-1
 256 576 l 1,45,-1
 256 640 l 1,46,-1
 320 640 l 1,47,-1
 320 576 l 1,48,-1
 320 512 l 1,49,-1
 256 512 l 1,44,-1
64 640 m 1,50,-1
 64 704 l 1,51,-1
 64 768 l 1,52,-1
 64 832 l 1,53,-1
 64 896 l 1,54,-1
 128 896 l 1,55,-1
 128 832 l 1,56,-1
 128 768 l 1,57,-1
 128 704 l 1,58,-1
 128 640 l 1,59,-1
 64 640 l 1,50,-1
320 640 m 1,60,-1
 320 704 l 1,61,-1
 320 768 l 1,62,-1
 320 832 l 1,63,-1
 320 896 l 1,64,-1
 384 896 l 1,65,-1
 384 832 l 1,66,-1
 384 768 l 1,67,-1
 384 704 l 1,68,-1
 384 640 l 1,69,-1
 320 640 l 1,60,-1
EndSplineSet
EndChar

StartChar: Y
Encoding: 89 89 40
Width: 448
Flags: W
LayerCount: 2
Back
Fore
SplineSet
192 0 m 1,0,-1
 192 64 l 1,1,-1
 192 128 l 1,2,-1
 192 192 l 1,3,-1
 192 256 l 1,4,-1
 192 320 l 1,5,-1
 192 384 l 1,6,-1
 192 448 l 1,7,-1
 192 512 l 1,8,-1
 256 512 l 1,9,-1
 256 448 l 1,10,-1
 256 384 l 1,11,-1
 256 320 l 1,12,-1
 256 256 l 1,13,-1
 256 192 l 1,14,-1
 256 128 l 1,15,-1
 256 64 l 1,16,-1
 256 0 l 1,17,-1
 192 0 l 1,0,-1
128 512 m 1,18,-1
 128 576 l 1,19,-1
 128 640 l 1,20,-1
 192 640 l 1,21,-1
 192 576 l 1,22,-1
 192 512 l 1,23,-1
 128 512 l 1,18,-1
256 512 m 1,24,-1
 256 576 l 1,25,-1
 256 640 l 1,26,-1
 320 640 l 1,27,-1
 320 576 l 1,28,-1
 320 512 l 1,29,-1
 256 512 l 1,24,-1
64 640 m 1,30,-1
 64 704 l 1,31,-1
 64 768 l 1,32,-1
 64 832 l 1,33,-1
 64 896 l 1,34,-1
 128 896 l 1,35,-1
 128 832 l 1,36,-1
 128 768 l 1,37,-1
 128 704 l 1,38,-1
 128 640 l 1,39,-1
 64 640 l 1,30,-1
320 640 m 1,40,-1
 320 704 l 1,41,-1
 320 768 l 1,42,-1
 320 832 l 1,43,-1
 320 896 l 1,44,-1
 384 896 l 1,45,-1
 384 832 l 1,46,-1
 384 768 l 1,47,-1
 384 704 l 1,48,-1
 384 640 l 1,49,-1
 320 640 l 1,40,-1
EndSplineSet
EndChar

StartChar: Z
Encoding: 90 90 41
Width: 448
Flags: W
LayerCount: 2
Back
Fore
SplineSet
64 0 m 1,0,-1
 64 64 l 1,1,-1
 64 128 l 1,2,-1
 64 192 l 1,3,-1
 64 256 l 1,4,-1
 128 256 l 1,5,-1
 128 192 l 1,6,-1
 128 128 l 1,7,-1
 192 128 l 1,8,-1
 256 128 l 1,9,-1
 320 128 l 1,10,-1
 384 128 l 1,11,-1
 384 64 l 1,12,-1
 384 0 l 1,13,-1
 320 0 l 1,14,-1
 256 0 l 1,15,-1
 192 0 l 1,16,-1
 128 0 l 1,17,-1
 64 0 l 1,0,-1
128 256 m 1,18,-1
 128 320 l 1,19,-1
 128 384 l 1,20,-1
 192 384 l 1,21,-1
 192 320 l 1,22,-1
 192 256 l 1,23,-1
 128 256 l 1,18,-1
192 384 m 1,24,-1
 192 448 l 1,25,-1
 192 512 l 1,26,-1
 256 512 l 1,27,-1
 256 448 l 1,28,-1
 256 384 l 1,29,-1
 192 384 l 1,24,-1
256 512 m 1,30,-1
 256 576 l 1,31,-1
 256 640 l 1,32,-1
 320 640 l 1,33,-1
 320 576 l 1,34,-1
 320 512 l 1,35,-1
 256 512 l 1,30,-1
320 640 m 1,36,-1
 320 704 l 1,37,-1
 320 768 l 1,38,-1
 256 768 l 1,39,-1
 192 768 l 1,40,-1
 128 768 l 1,41,-1
 64 768 l 1,42,-1
 64 832 l 1,43,-1
 64 896 l 1,44,-1
 128 896 l 1,45,-1
 192 896 l 1,46,-1
 256 896 l 1,47,-1
 320 896 l 1,48,-1
 384 896 l 1,49,-1
 384 832 l 1,50,-1
 384 768 l 1,51,-1
 384 704 l 1,52,-1
 384 640 l 1,53,-1
 320 640 l 1,36,-1
EndSplineSet
EndChar

StartChar: percent
Encoding: 37 37 42
Width: 448
VWidth: 0
Flags: WO
LayerCount: 2
Back
Fore
SplineSet
256 0 m 1,0,-1
 256 64 l 1,1,-1
 256 128 l 1,2,-1
 256 192 l 1,3,-1
 256 256 l 1,4,-1
 320 256 l 1,5,-1
 384 256 l 1,6,-1
 384 192 l 1,7,-1
 384 128 l 1,8,-1
 384 64 l 1,9,-1
 384 0 l 1,10,-1
 320 0 l 1,11,-1
 256 0 l 1,0,-1
64 128 m 1,12,-1
 64 192 l 1,13,-1
 64 256 l 1,14,-1
 128 256 l 1,15,-1
 128 192 l 1,16,-1
 128 128 l 1,17,-1
 64 128 l 1,12,-1
128 256 m 1,18,-1
 128 320 l 1,19,-1
 128 384 l 1,20,-1
 192 384 l 1,21,-1
 192 320 l 1,22,-1
 192 256 l 1,23,-1
 128 256 l 1,18,-1
192 384 m 1,24,-1
 192 448 l 1,25,-1
 192 512 l 1,26,-1
 256 512 l 1,27,-1
 256 448 l 1,28,-1
 256 384 l 1,29,-1
 192 384 l 1,24,-1
256 512 m 1,30,-1
 256 576 l 1,31,-1
 256 640 l 1,32,-1
 320 640 l 1,33,-1
 320 576 l 1,34,-1
 320 512 l 1,35,-1
 256 512 l 1,30,-1
64 640 m 1,36,-1
 64 704 l 1,37,-1
 64 768 l 1,38,-1
 64 832 l 1,39,-1
 64 896 l 1,40,-1
 128 896 l 1,41,-1
 192 896 l 1,42,-1
 192 832 l 1,43,-1
 192 768 l 1,44,-1
 192 704 l 1,45,-1
 192 640 l 1,46,-1
 128 640 l 1,47,-1
 64 640 l 1,36,-1
320 640 m 1,48,-1
 320 704 l 1,49,-1
 320 768 l 1,50,-1
 384 768 l 1,51,-1
 384 704 l 1,52,-1
 384 640 l 1,53,-1
 320 640 l 1,48,-1
EndSplineSet
EndChar

